<mxfile host="app.diagrams.net" modified="2024-03-11T03:40:23.008Z" agent="Mozilla/5.0 (Windows NT 10.0; Win64; x64) AppleWebKit/537.36 (KHTML, like Gecko) Chrome/122.0.0.0 Safari/537.36" etag="5DKFnTHQ9mZGgd1QDxut" version="24.0.4" type="github">
  <diagram name="第 1 页" id="xlsSRVsYgBKMrE5UdAEL">
    <mxGraphModel dx="1434" dy="738" grid="1" gridSize="10" guides="1" tooltips="1" connect="1" arrows="1" fold="1" page="1" pageScale="1" pageWidth="827" pageHeight="1169" math="1" shadow="0">
      <root>
        <mxCell id="0" />
        <mxCell id="1" parent="0" />
        <mxCell id="EfLHe8vC_a_eS6vLgSUg-2" value="" style="rounded=1;whiteSpace=wrap;html=1;fillColor=#f5f5f5;fontColor=#333333;strokeColor=#666666;" vertex="1" parent="1">
          <mxGeometry x="40" y="150" width="450" height="390" as="geometry" />
        </mxCell>
        <mxCell id="EfLHe8vC_a_eS6vLgSUg-3" value="" style="endArrow=classic;html=1;rounded=0;strokeWidth=2;" edge="1" parent="1">
          <mxGeometry width="50" height="50" relative="1" as="geometry">
            <mxPoint x="194.21356783919597" y="243.3292682926829" as="sourcePoint" />
            <mxPoint x="229.95979899497488" y="242.96829268292686" as="targetPoint" />
          </mxGeometry>
        </mxCell>
        <mxCell id="EfLHe8vC_a_eS6vLgSUg-4" value="" style="endArrow=classic;html=1;rounded=0;strokeWidth=2;" edge="1" parent="1">
          <mxGeometry width="50" height="50" relative="1" as="geometry">
            <mxPoint x="245.85000000000002" y="441" as="sourcePoint" />
            <mxPoint x="330.377688442211" y="440.9182926829268" as="targetPoint" />
          </mxGeometry>
        </mxCell>
        <mxCell id="EfLHe8vC_a_eS6vLgSUg-5" value="&lt;font style=&quot;font-size: 16px;&quot;&gt;体渲染&lt;/font&gt;&lt;div style=&quot;font-size: 16px;&quot;&gt;&lt;font style=&quot;font-size: 16px;&quot;&gt;Volume Rendering&lt;/font&gt;&lt;/div&gt;" style="text;html=1;align=center;verticalAlign=middle;resizable=0;points=[];autosize=1;strokeColor=none;fillColor=none;" vertex="1" parent="1">
          <mxGeometry x="208.686432160804" y="380.0080487804878" width="160" height="50" as="geometry" />
        </mxCell>
        <mxCell id="EfLHe8vC_a_eS6vLgSUg-6" value="" style="strokeWidth=2;html=1;shape=mxgraph.flowchart.annotation_2;align=left;labelPosition=right;pointerEvents=1;" vertex="1" parent="1">
          <mxGeometry x="341.68673366834173" y="398.05243902439025" width="43.5929648241206" height="90.2439024390244" as="geometry" />
        </mxCell>
        <mxCell id="EfLHe8vC_a_eS6vLgSUg-7" value="&lt;font style=&quot;font-size: 16px;&quot;&gt;颜色&lt;/font&gt;&lt;div&gt;&lt;font style=&quot;font-size: 16px;&quot;&gt;Color&lt;/font&gt;&lt;/div&gt;" style="rounded=1;whiteSpace=wrap;html=1;fillColor=#fff2cc;strokeColor=#d6b656;" vertex="1" parent="1">
          <mxGeometry x="387.9982914572864" y="380.00365853658536" width="61.030150753768844" height="36.09756097560976" as="geometry" />
        </mxCell>
        <mxCell id="EfLHe8vC_a_eS6vLgSUg-8" value="&lt;span style=&quot;font-size: 16px;&quot;&gt;深度图&lt;/span&gt;&lt;div&gt;&lt;span style=&quot;font-size: 16px;&quot;&gt;Depth&lt;/span&gt;&lt;/div&gt;" style="rounded=1;whiteSpace=wrap;html=1;fillColor=#fff2cc;strokeColor=#d6b656;" vertex="1" parent="1">
          <mxGeometry x="387.9982914572864" y="470.24756097560976" width="61.030150753768844" height="36.09756097560976" as="geometry" />
        </mxCell>
        <mxCell id="EfLHe8vC_a_eS6vLgSUg-24" value="&lt;font style=&quot;font-size: 14px;&quot;&gt;$$I_0$$&lt;/font&gt;" style="text;html=1;align=center;verticalAlign=middle;resizable=0;points=[];autosize=1;strokeColor=none;fillColor=none;" vertex="1" parent="1">
          <mxGeometry x="91.33417085427135" y="227.9878048780488" width="70" height="30" as="geometry" />
        </mxCell>
        <mxCell id="EfLHe8vC_a_eS6vLgSUg-11" value="" style="group" vertex="1" connectable="0" parent="1">
          <mxGeometry x="94.84773869346728" y="369.1758536585366" width="130.7788944723618" height="119.12195121951218" as="geometry" />
        </mxCell>
        <mxCell id="EfLHe8vC_a_eS6vLgSUg-12" value="光线" style="text;html=1;align=center;verticalAlign=middle;resizable=0;points=[];autosize=1;strokeColor=none;fillColor=none;" vertex="1" parent="EfLHe8vC_a_eS6vLgSUg-11">
          <mxGeometry x="40.97738693467336" width="50" height="30" as="geometry" />
        </mxCell>
        <mxCell id="EfLHe8vC_a_eS6vLgSUg-13" value="" style="group" vertex="1" connectable="0" parent="EfLHe8vC_a_eS6vLgSUg-11">
          <mxGeometry y="1.8048780487804876" width="130.7788944723618" height="117.3170731707317" as="geometry" />
        </mxCell>
        <mxCell id="EfLHe8vC_a_eS6vLgSUg-14" value="" style="endArrow=classic;html=1;rounded=0;strokeWidth=1;" edge="1" parent="EfLHe8vC_a_eS6vLgSUg-13">
          <mxGeometry width="50" height="50" relative="1" as="geometry">
            <mxPoint x="17.43718592964824" y="117.3170731707317" as="sourcePoint" />
            <mxPoint x="17.43718592964824" as="targetPoint" />
          </mxGeometry>
        </mxCell>
        <mxCell id="EfLHe8vC_a_eS6vLgSUg-15" value="" style="endArrow=classic;html=1;rounded=0;" edge="1" parent="EfLHe8vC_a_eS6vLgSUg-13">
          <mxGeometry width="50" height="50" relative="1" as="geometry">
            <mxPoint y="92.95121951219511" as="sourcePoint" />
            <mxPoint x="130.7788944723618" y="92.95121951219511" as="targetPoint" />
          </mxGeometry>
        </mxCell>
        <mxCell id="EfLHe8vC_a_eS6vLgSUg-16" value="" style="endArrow=none;html=1;rounded=0;curved=1;" edge="1" parent="EfLHe8vC_a_eS6vLgSUg-13">
          <mxGeometry width="50" height="50" relative="1" as="geometry">
            <mxPoint x="26.15577889447236" y="74.90243902439023" as="sourcePoint" />
            <mxPoint x="122.06030150753769" y="74.90243902439023" as="targetPoint" />
            <Array as="points">
              <mxPoint x="34.87437185929648" y="11.73170731707317" />
              <mxPoint x="61.030150753768844" y="74.90243902439023" />
            </Array>
          </mxGeometry>
        </mxCell>
        <mxCell id="EfLHe8vC_a_eS6vLgSUg-17" value="" style="group" vertex="1" connectable="0" parent="1">
          <mxGeometry x="237.80653266331657" y="163.0121951219512" width="95.03266331658291" height="124.53658536585365" as="geometry" />
        </mxCell>
        <mxCell id="EfLHe8vC_a_eS6vLgSUg-18" value="" style="rounded=1;whiteSpace=wrap;html=1;rotation=90;fillColor=#dae8fc;strokeColor=#6c8ebf;" vertex="1" parent="EfLHe8vC_a_eS6vLgSUg-17">
          <mxGeometry x="-29.64321608040201" y="66.78048780487805" width="85.44221105527637" height="27.073170731707314" as="geometry" />
        </mxCell>
        <mxCell id="EfLHe8vC_a_eS6vLgSUg-19" value="" style="rounded=1;whiteSpace=wrap;html=1;rotation=90;fillColor=#dae8fc;strokeColor=#6c8ebf;" vertex="1" parent="EfLHe8vC_a_eS6vLgSUg-17">
          <mxGeometry x="4.359296482412063" y="66.78048780487805" width="85.44221105527637" height="27.073170731707314" as="geometry" />
        </mxCell>
        <mxCell id="EfLHe8vC_a_eS6vLgSUg-31" style="edgeStyle=orthogonalEdgeStyle;rounded=0;orthogonalLoop=1;jettySize=auto;html=1;exitX=0.5;exitY=0;exitDx=0;exitDy=0;" edge="1" parent="EfLHe8vC_a_eS6vLgSUg-17" source="EfLHe8vC_a_eS6vLgSUg-20">
          <mxGeometry relative="1" as="geometry">
            <mxPoint x="-87.80653266331657" y="196.9878048780488" as="targetPoint" />
          </mxGeometry>
        </mxCell>
        <mxCell id="EfLHe8vC_a_eS6vLgSUg-20" value="" style="rounded=1;whiteSpace=wrap;html=1;rotation=90;fillColor=#dae8fc;strokeColor=#6c8ebf;" vertex="1" parent="EfLHe8vC_a_eS6vLgSUg-17">
          <mxGeometry x="39.23366834170854" y="65.8780487804878" width="85.44221105527637" height="27.073170731707314" as="geometry" />
        </mxCell>
        <mxCell id="EfLHe8vC_a_eS6vLgSUg-21" value="&lt;font style=&quot;font-size: 16px;&quot;&gt;$$F_\theta$$&lt;/font&gt;" style="rounded=0;whiteSpace=wrap;html=1;strokeColor=none;" vertex="1" parent="EfLHe8vC_a_eS6vLgSUg-17">
          <mxGeometry x="20.92462311557789" y="66.78048780487805" width="52.31155778894472" height="26.17073170731707" as="geometry" />
        </mxCell>
        <mxCell id="EfLHe8vC_a_eS6vLgSUg-22" value="&lt;font style=&quot;font-size: 16px;&quot;&gt;神经辐射场&lt;/font&gt;" style="text;html=1;align=center;verticalAlign=middle;resizable=0;points=[];autosize=1;strokeColor=none;fillColor=none;" vertex="1" parent="EfLHe8vC_a_eS6vLgSUg-17">
          <mxGeometry x="3.487437185929651" width="100" height="30" as="geometry" />
        </mxCell>
      </root>
    </mxGraphModel>
  </diagram>
</mxfile>
